<svg viewBox="0 0 816 1158" xmlns="http://www.w3.org/2000/svg">
    <rect fill="#f5f1e5" height="1158" rx="70" width="816" />
    <g fill="#ec1f26">
        <path
            d="m60 110.58a17.4 17.4 0 0 0 .87 2.68q.87 2.37 2.13 6.17t3 8.53q1.73 4.74 3.47 9.64 4.11 11.53 9.32 26.07c.11.21-.18.5-.86.87a9.37 9.37 0 0 1 -3.88.55 17.35 17.35 0 0 1 -4.18-.32c-.69-.21-1.08-.42-1.19-.63l-14.38-40c-.1-.42-.26-.66-.47-.71s-.37.13-.47.55l-3.95 10.9a1.9 1.9 0 0 0 -.16.87v27.25c0 .52-.63.92-1.9 1.18a15.89 15.89 0 0 1 -3 .4 24.14 24.14 0 0 1 -3.08-.24c-1.21-.16-1.82-.5-1.82-1v-108.06c0-.32.42-.66 1.27-1a8.83 8.83 0 0 1 3.47-.55 10.06 10.06 0 0 1 3.72.55c.89.37 1.34.77 1.34 1.19v52a.61.61 0 0 0 .16.47c.1.11.26 0 .47-.47 0-.1.29-.92.87-2.45s1.31-3.53 2.21-6 1.9-5.27 3-8.38 2.24-6.29 3.4-9.56l9.16-25.91c.11-.32.5-.63 1.19-.95a10.66 10.66 0 0 1 3.87-.47 9.82 9.82 0 0 1 3.87.55c.79.37 1.13.71 1 1q-3 8.53-6.16 17.38-2.7 7.57-5.93 16.9t-6.36 18.31a4 4 0 0 0 0 2.69z" />
        <path
            d="m750.17 1045.42a17.32 17.32 0 0 0 -.87-2.69q-.87-2.37-2.14-6.16t-3-8.53q-1.74-4.74-3.47-9.64-4.11-11.53-9.33-26.07-.15-.32.87-.87a9.34 9.34 0 0 1 3.87-.55 17.39 17.39 0 0 1 4.19.32c.69.21 1.08.42 1.19.63l14.37 40c.11.42.27.66.48.71s.37-.13.47-.55l4-10.9a1.9 1.9 0 0 0 .16-.87v-27.25c0-.52.63-.92 1.9-1.18a15.89 15.89 0 0 1 3-.4 24.14 24.14 0 0 1 3.08.24c1.21.16 1.82.5 1.82 1v108.07c0 .32-.42.66-1.27 1a8.83 8.83 0 0 1 -3.47.55 10.06 10.06 0 0 1 -3.72-.55c-.89-.37-1.34-.77-1.34-1.19v-52a.61.61 0 0 0 -.16-.47c-.1-.11-.26.05-.47.47 0 .1-.29.92-.87 2.45s-1.32 3.53-2.21 6-1.9 5.27-3 8.38l-3.45 9.63-9.17 25.91c-.1.31-.5.63-1.18.95a10.74 10.74 0 0 1 -3.87.47 9.82 9.82 0 0 1 -3.87-.55c-.79-.37-1.13-.71-1-1q3-8.54 6.16-17.38 2.68-7.59 5.93-16.91t6.4-18.32a4 4 0 0 0 -.03-2.75z" />
        <path
            d="m788.1 914.43-.53-.62a30.17 30.17 0 0 1 -26.57-26.59l-.63-.53h-.52l-.62.53a30.19 30.19 0 0 1 -26.59 26.59l-.53.62v.57l.53.63a30.17 30.17 0 0 1 26.59 26.58l.62.53h.52l.63-.53a30.15 30.15 0 0 1 26.58-26.58l.53-.63z" />
        <path
            d="m94.5 241.05-.53-.63a30.15 30.15 0 0 1 -26.58-26.58l-.63-.53h-.52l-.63.53a31.31 31.31 0 0 1 -8.61 17.91 31.3 31.3 0 0 1 -18 8.67l-.53.63v.52l.53.62a31.35 31.35 0 0 1 18 8.65 31.27 31.27 0 0 1 8.64 17.94l.63.53h.52l.63-.53a30.17 30.17 0 0 1 26.58-26.59l.53-.62z" />
        <path
            d="m274.5 557.43-1.13-1.33a64.62 64.62 0 0 1 -57-57l-1.31-1.1h-1.12l-1.34 1.13a64.62 64.62 0 0 1 -57 57l-1.13 1.34v1.12l1.13 1.34a64.62 64.62 0 0 1 57 57l1.34 1.13h1.12l1.34-1.13a64.62 64.62 0 0 1 57-57l1.13-1.34z" />
        <path
            d="m661.5 613.43-1.13-1.33a64.62 64.62 0 0 1 -57-57l-1.31-1.1h-1.12l-1.34 1.13a64.62 64.62 0 0 1 -57 57l-1.13 1.34v1.12l1.13 1.34a64.62 64.62 0 0 1 57 57l1.34 1.13h1.12l1.34-1.13a64.62 64.62 0 0 1 57-57l1.13-1.34z" />
    </g>
    <path d="m382.29 371h51v428h-51z" fill="#ea2129" />
    <path d="m347.36 361.17h122.85v18.16h-122.85z" fill="#ec1f26" />
    <path
        d="m597.99 795.17-136.59-181.26 112.71-149.58h34.1v-18.16h-122.85v18.16h23.93l-79 105.67v87l102.88 138.17h-18.81v18.16h122.85v-18.16z"
        fill="#ec1f26" />
    <path
        d="m218.01 376.83 136.59 181.26-112.71 149.58h-34.1v18.16h122.85v-18.16h-23.93l79-105.67v-87l-102.88-138.17h18.81v-18.16h-122.85v18.16z"
        fill="#ec1f26" />
    <path d="m346.36 795.17h122.85v18.16h-122.85z" fill="#ec1f26" />
    <path d="m378.43 303-15.18 26.29h30.35z" />
    <path d="m378.43 355.58 15.17-26.29h-30.35z" />
    <path d="m348.07 303v26.29h15.18z" />
    <path d="m348.07 355.58 15.18-26.29h-15.18z" />
    <path d="m408.78 303-15.18 26.29h30.36z" />
    <path d="m408.78 355.58 15.18-26.29h-30.36z" />
    <path d="m439.14 303-15.18 26.29h30.36z" />
    <path d="m439.14 355.58 15.18-26.29h-30.36z" />
    <path d="m469.5 303-15.18 26.29h15.18z" />
    <path d="m469.5 355.58v-26.29h-15.18z" />
    <path d="m347.36 339.17h122.85v18.16h-122.85z" />
    <path
        d="m369.14 348.19-.11-.13a6.45 6.45 0 0 1 -5.7-5.7l-.13-.11h-.12l-.13.11a6.48 6.48 0 0 1 -5.7 5.7l-.11.13v.12l.11.13a6.45 6.45 0 0 1 5.7 5.7l.13.11h.11l.14-.11a6.48 6.48 0 0 1 5.7-5.7l.11-.13z"
        fill="#f5f1e5" />
    <path
        d="m399.57 348.19-.11-.13a6.45 6.45 0 0 1 -5.7-5.7l-.13-.11h-.11l-.14.11a6.65 6.65 0 0 1 -1.84 3.84 6.76 6.76 0 0 1 -3.86 1.86l-.11.13v.12l.11.13a6.45 6.45 0 0 1 5.7 5.7l.14.11h.11l.13-.11a6.48 6.48 0 0 1 5.7-5.7l.11-.13z"
        fill="#f5f1e5" />
    <path
        d="m430 348.19-.11-.13a6.48 6.48 0 0 1 -5.7-5.7l-.13-.11h-.06l-.14.11a6.45 6.45 0 0 1 -5.69 5.7l-.12.13v.12l.12.13a6.75 6.75 0 0 1 3.84 1.85 6.66 6.66 0 0 1 1.85 3.85l.14.11h.11l.13-.11a6.48 6.48 0 0 1 5.7-5.7l.11-.13z"
        fill="#f5f1e5" />
    <path
        d="m460.44 348.19-.12-.13a6.45 6.45 0 0 1 -5.69-5.7l-.14-.11h-.11l-.13.11a6.48 6.48 0 0 1 -5.7 5.7l-.11.13v.12l.11.13a6.45 6.45 0 0 1 5.7 5.7l.13.11h.11l.14-.11a6.64 6.64 0 0 1 1.86-3.85 6.72 6.72 0 0 1 3.83-1.85l.12-.13z"
        fill="#f5f1e5" />
    <path d="m377.43 871.33-15.18-26.29h30.35z" />
    <path d="m377.43 818.75 15.17 26.29h-30.35z" />
    <path d="m347.07 871.33v-26.29h15.18z" />
    <path d="m347.07 818.75 15.18 26.29h-15.18z" />
    <path d="m407.78 871.33-15.18-26.29h30.36z" />
    <path d="m407.78 818.75 15.18 26.29h-30.36z" />
    <path d="m438.14 871.33-15.18-26.29h30.36z" />
    <path d="m438.14 818.75 15.18 26.29h-30.36z" />
    <path d="m468.5 871.33-15.18-26.29h15.18z" />
    <path d="m468.5 818.75v26.29h-15.18z" />
    <path d="m346.36 817h122.85v18.16h-122.85z" />
    <path
        d="m368.14 826-.11-.14a6.65 6.65 0 0 1 -3.84-1.84 6.73 6.73 0 0 1 -1.86-3.85l-.14-.12h-.11l-.13.12a6.45 6.45 0 0 1 -5.7 5.69l-.11.14v.11l.11.13a6.48 6.48 0 0 1 5.75 5.76l.13.11h.12l.13-.11a6.45 6.45 0 0 1 5.7-5.7l.11-.13z"
        fill="#f5f1e5" />
    <path
        d="m398.57 826-.11-.14a6.65 6.65 0 0 1 -3.84-1.84 6.73 6.73 0 0 1 -1.86-3.85l-.13-.12h-.11l-.14.12a6.45 6.45 0 0 1 -5.7 5.69l-.11.14v.11l.11.13a6.76 6.76 0 0 1 3.86 1.86 6.68 6.68 0 0 1 1.84 3.84l.14.11h.11l.13-.11a6.45 6.45 0 0 1 5.7-5.7l.11-.13z"
        fill="#f5f1e5" />
    <path
        d="m429 826-.11-.14a6.68 6.68 0 0 1 -3.84-1.84 6.79 6.79 0 0 1 -1.86-3.85l-.13-.12h-.06l-.14.12a6.46 6.46 0 0 1 -5.69 5.69l-.17.14v.11l.12.13a6.45 6.45 0 0 1 5.69 5.7l.14.11h.11l.13-.11a6.48 6.48 0 0 1 5.7-5.7l.11-.13z"
        fill="#f5f1e5" />
    <path
        d="m459.44 826-.12-.14a6.46 6.46 0 0 1 -5.69-5.69l-.14-.12h-.11l-.13.12a6.45 6.45 0 0 1 -5.7 5.69l-.11.14v.11l.11.13a6.48 6.48 0 0 1 5.7 5.7l.13.11h.11l.14-.11a6.45 6.45 0 0 1 5.69-5.7l.12-.13z"
        fill="#f5f1e5" />
</svg>